<svg xmlns="http://www.w3.org/2000/svg" viewBox="0 0 1200 760" role="img" aria-label="Calendar preview">
  <defs>
    <linearGradient id="bg" x1="0" y1="0" x2="1" y2="1">
      <stop offset="0%" stop-color="#111827"/>
      <stop offset="50%" stop-color="#0f172a"/>
      <stop offset="100%" stop-color="#7c3aed"/>
    </linearGradient>
    <linearGradient id="card" x1="0" y1="0" x2="1" y2="1">
      <stop offset="0%" stop-color="#ffffff" stop-opacity="0.18"/>
      <stop offset="100%" stop-color="#ffffff" stop-opacity="0.06"/>
    </linearGradient>
  </defs>
  <rect width="1200" height="760" rx="36" fill="url(#bg)"/>
  <rect x="44" y="44" width="1112" height="672" rx="28" fill="rgba(255,255,255,0.04)" stroke="rgba(255,255,255,0.12)"/>
  <rect x="72" y="72" width="1056" height="86" rx="22" fill="url(#card)" stroke="rgba(255,255,255,0.12)"/>
  <rect x="72" y="184" width="1056" height="504" rx="22" fill="url(#card)" stroke="rgba(255,255,255,0.12)"/>
  <g transform="translate(102 218)">
    <rect x="0" y="0" width="132" height="96" rx="20" fill="rgba(255,255,255,0.10)"/>
    <rect x="152" y="0" width="132" height="96" rx="20" fill="rgba(255,255,255,0.10)"/>
    <rect x="304" y="0" width="132" height="96" rx="20" fill="rgba(255,255,255,0.10)"/>
    <rect x="456" y="0" width="132" height="96" rx="20" fill="rgba(255,255,255,0.10)"/>
    <rect x="608" y="0" width="132" height="96" rx="20" fill="#ef4444"/>
    <rect x="760" y="0" width="132" height="96" rx="20" fill="rgba(255,255,255,0.10)"/>
    <rect x="912" y="0" width="132" height="96" rx="20" fill="rgba(255,255,255,0.10)"/>
    <g fill="rgba(255,255,255,0.9)" font-family="Inter, system-ui, sans-serif" font-size="20" font-weight="600">
      <text x="26" y="38">1</text>
      <text x="178" y="38">2</text>
      <text x="330" y="38">3</text>
      <text x="482" y="38">4</text>
      <text x="632" y="38">5</text>
      <text x="784" y="38">6</text>
      <text x="936" y="38">7</text>
    </g>
  </g>
  <text x="102" y="136" fill="#fff" font-family="Inter, system-ui, sans-serif" font-size="28" font-weight="700">Calendário</text>
  <text x="102" y="166" fill="rgba(255,255,255,0.72)" font-family="Inter, system-ui, sans-serif" font-size="18">Vistas dia, semana, mês e ano com destaque para hoje</text>
</svg>
