<svg xmlns="http://www.w3.org/2000/svg" viewBox="0 0 1200 760" role="img" aria-label="Dashboard preview">
  <defs>
    <linearGradient id="bg" x1="0" y1="0" x2="1" y2="1">
      <stop offset="0%" stop-color="#0f172a"/>
      <stop offset="50%" stop-color="#111827"/>
      <stop offset="100%" stop-color="#1d4ed8"/>
    </linearGradient>
    <linearGradient id="card" x1="0" y1="0" x2="1" y2="1">
      <stop offset="0%" stop-color="#ffffff" stop-opacity="0.16"/>
      <stop offset="100%" stop-color="#ffffff" stop-opacity="0.06"/>
    </linearGradient>
  </defs>
  <rect width="1200" height="760" rx="36" fill="url(#bg)"/>
  <rect x="40" y="40" width="1120" height="680" rx="28" fill="rgba(255,255,255,0.04)" stroke="rgba(255,255,255,0.12)"/>
  <rect x="72" y="72" width="250" height="620" rx="24" fill="rgba(255,255,255,0.07)"/>
  <rect x="360" y="72" width="768" height="120" rx="24" fill="url(#card)" stroke="rgba(255,255,255,0.12)"/>
  <rect x="360" y="220" width="368" height="220" rx="24" fill="url(#card)" stroke="rgba(255,255,255,0.12)"/>
  <rect x="760" y="220" width="368" height="220" rx="24" fill="url(#card)" stroke="rgba(255,255,255,0.12)"/>
  <rect x="360" y="472" width="768" height="220" rx="24" fill="url(#card)" stroke="rgba(255,255,255,0.12)"/>
  <rect x="96" y="110" width="196" height="24" rx="12" fill="rgba(255,255,255,0.22)"/>
  <rect x="96" y="160" width="150" height="16" rx="8" fill="rgba(255,255,255,0.12)"/>
  <rect x="96" y="200" width="170" height="16" rx="8" fill="rgba(255,255,255,0.12)"/>
  <rect x="96" y="240" width="120" height="16" rx="8" fill="rgba(255,255,255,0.12)"/>
  <rect x="96" y="280" width="150" height="16" rx="8" fill="rgba(255,255,255,0.12)"/>
  <rect x="96" y="330" width="170" height="34" rx="17" fill="rgba(255,255,255,0.16)"/>
  <rect x="96" y="378" width="170" height="34" rx="17" fill="rgba(255,255,255,0.10)"/>
  <rect x="96" y="426" width="170" height="34" rx="17" fill="rgba(255,255,255,0.10)"/>
  <text x="390" y="140" fill="#fff" font-family="Inter, system-ui, sans-serif" font-size="30" font-weight="700">Página Inicial</text>
  <text x="390" y="176" fill="rgba(255,255,255,0.75)" font-family="Inter, system-ui, sans-serif" font-size="18">Resumo diário, eventos, compras e tarefas</text>
</svg>
