<svg xmlns="http://www.w3.org/2000/svg" viewBox="0 0 1200 760" role="img" aria-label="Market preview">
  <defs>
    <linearGradient id="bg" x1="0" y1="0" x2="1" y2="1">
      <stop offset="0%" stop-color="#0f172a"/>
      <stop offset="50%" stop-color="#1f2937"/>
      <stop offset="100%" stop-color="#15803d"/>
    </linearGradient>
    <linearGradient id="card" x1="0" y1="0" x2="1" y2="1">
      <stop offset="0%" stop-color="#ffffff" stop-opacity="0.18"/>
      <stop offset="100%" stop-color="#ffffff" stop-opacity="0.06"/>
    </linearGradient>
  </defs>
  <rect width="1200" height="760" rx="36" fill="url(#bg)"/>
  <rect x="44" y="44" width="1112" height="672" rx="28" fill="rgba(255,255,255,0.04)" stroke="rgba(255,255,255,0.12)"/>
  <rect x="72" y="72" width="1056" height="108" rx="24" fill="url(#card)" stroke="rgba(255,255,255,0.12)"/>
  <rect x="72" y="204" width="1056" height="472" rx="24" fill="url(#card)" stroke="rgba(255,255,255,0.12)"/>
  <g transform="translate(100 234)">
    <rect x="0" y="0" width="940" height="70" rx="18" fill="rgba(255,255,255,0.09)"/>
    <rect x="0" y="92" width="940" height="70" rx="18" fill="rgba(255,255,255,0.09)"/>
    <rect x="0" y="184" width="940" height="70" rx="18" fill="rgba(255,255,255,0.09)"/>
    <rect x="0" y="276" width="940" height="70" rx="18" fill="rgba(255,255,255,0.09)"/>
    <rect x="0" y="368" width="940" height="70" rx="18" fill="rgba(255,255,255,0.09)"/>
    <g fill="#fff" font-family="Inter, system-ui, sans-serif" font-size="22" font-weight="600">
      <text x="24" y="44">Leite</text>
      <text x="24" y="136">Pão</text>
      <text x="24" y="228">Fraldas</text>
      <text x="24" y="320">Detergente</text>
      <text x="24" y="412">Iogurtes</text>
    </g>
    <rect x="822" y="18" width="96" height="34" rx="17" fill="#22c55e"/>
    <rect x="822" y="110" width="96" height="34" rx="17" fill="#22c55e"/>
    <rect x="822" y="202" width="96" height="34" rx="17" fill="#f59e0b"/>
    <rect x="822" y="294" width="96" height="34" rx="17" fill="#f59e0b"/>
    <rect x="822" y="386" width="96" height="34" rx="17" fill="#f59e0b"/>
  </g>
  <text x="102" y="136" fill="#fff" font-family="Inter, system-ui, sans-serif" font-size="28" font-weight="700">Modo Mercado</text>
  <text x="102" y="166" fill="rgba(255,255,255,0.72)" font-family="Inter, system-ui, sans-serif" font-size="18">Checklist limpa para assinalar produtos no mercado</text>
</svg>
