<svg xmlns="http://www.w3.org/2000/svg" viewBox="0 0 1600 420" role="img" aria-label="Agenda Familiar">
  <defs>
    <linearGradient id="bg" x1="0" y1="0" x2="1" y2="1">
      <stop offset="0%" stop-color="#0f172a"/>
      <stop offset="45%" stop-color="#1d4ed8"/>
      <stop offset="100%" stop-color="#f59e0b"/>
    </linearGradient>
    <radialGradient id="glow1" cx="20%" cy="30%" r="60%">
      <stop offset="0%" stop-color="#38bdf8" stop-opacity="0.85"/>
      <stop offset="55%" stop-color="#38bdf8" stop-opacity="0.18"/>
      <stop offset="100%" stop-color="#38bdf8" stop-opacity="0"/>
    </radialGradient>
    <radialGradient id="glow2" cx="85%" cy="70%" r="55%">
      <stop offset="0%" stop-color="#f472b6" stop-opacity="0.8"/>
      <stop offset="55%" stop-color="#f472b6" stop-opacity="0.14"/>
      <stop offset="100%" stop-color="#f472b6" stop-opacity="0"/>
    </radialGradient>
    <linearGradient id="card" x1="0" y1="0" x2="1" y2="1">
      <stop offset="0%" stop-color="#ffffff" stop-opacity="0.22"/>
      <stop offset="100%" stop-color="#ffffff" stop-opacity="0.06"/>
    </linearGradient>
    <linearGradient id="title" x1="0" y1="0" x2="1" y2="0">
      <stop offset="0%" stop-color="#ffffff"/>
      <stop offset="50%" stop-color="#dbeafe"/>
      <stop offset="100%" stop-color="#fde68a"/>
    </linearGradient>
  </defs>
  <rect width="1600" height="420" rx="44" fill="url(#bg)"/>
  <circle cx="250" cy="120" r="210" fill="url(#glow1)"/>
  <circle cx="1310" cy="280" r="230" fill="url(#glow2)"/>
  <g opacity="0.18" fill="#fff">
    <circle cx="1290" cy="78" r="4"/>
    <circle cx="1340" cy="110" r="3"/>
    <circle cx="1390" cy="84" r="5"/>
    <circle cx="1425" cy="138" r="3"/>
    <circle cx="1468" cy="98" r="4"/>
  </g>
  <g transform="translate(120 104)">
    <rect x="0" y="0" width="144" height="144" rx="34" fill="url(#card)" stroke="rgba(255,255,255,0.18)"/>
    <path d="M30 70L72 34l42 36v38c0 8-6 14-14 14H44c-8 0-14-6-14-14V70Z" fill="#fff"/>
    <path d="M54 84h36v34H54z" fill="#1d4ed8"/>
    <path d="M64 84h16v20H64z" fill="#dbeafe"/>
  </g>
  <text x="320" y="170" fill="url(#title)" font-family="Dancing Script, Segoe Script, cursive" font-size="108" font-weight="700">Agenda Familiar</text>
  <text x="322" y="236" fill="rgba(255,255,255,0.86)" font-family="Inter, system-ui, sans-serif" font-size="30" font-weight="500">
    Gestão premium da casa, com calendário, compras e rotinas num só lugar
  </text>
  <g transform="translate(322 276)" font-family="Inter, system-ui, sans-serif" font-size="20" font-weight="600" fill="#fff">
    <rect x="0" y="0" width="164" height="48" rx="24" fill="rgba(255,255,255,0.16)"/>
    <text x="26" y="31">Calendário</text>
    <rect x="186" y="0" width="146" height="48" rx="24" fill="rgba(255,255,255,0.16)"/>
    <text x="212" y="31">Compras</text>
    <rect x="352" y="0" width="138" height="48" rx="24" fill="rgba(255,255,255,0.16)"/>
    <text x="380" y="31">Família</text>
  </g>
  <g transform="translate(1060 92)" opacity="0.92">
    <rect x="0" y="0" width="360" height="236" rx="28" fill="rgba(255,255,255,0.08)" stroke="rgba(255,255,255,0.16)"/>
    <rect x="24" y="24" width="312" height="18" rx="9" fill="rgba(255,255,255,0.22)"/>
    <rect x="24" y="60" width="220" height="18" rx="9" fill="rgba(255,255,255,0.16)"/>
    <rect x="24" y="96" width="280" height="16" rx="8" fill="rgba(255,255,255,0.12)"/>
    <rect x="24" y="124" width="300" height="16" rx="8" fill="rgba(255,255,255,0.12)"/>
    <rect x="24" y="152" width="248" height="16" rx="8" fill="rgba(255,255,255,0.12)"/>
    <rect x="24" y="188" width="140" height="26" rx="13" fill="rgba(255,255,255,0.20)"/>
    <rect x="178" y="188" width="156" height="26" rx="13" fill="rgba(255,255,255,0.14)"/>
  </g>
</svg>
